<svg xmlns="http://www.w3.org/2000/svg" viewBox="0 0 1600 900" fill="none">
  <g stroke="#8ea7c1" stroke-opacity="0.064" stroke-width="2">
    <path d="M240 660H600"/>
    <path d="M600 660L900 430"/>
    <path d="M900 430H1210"/>
    <path d="M1210 430L1450 250"/>
    <path d="M1210 430L1450 650"/>
    <path d="M900 430L900 200"/>
  </g>
  <g stroke="#8ea7c1" stroke-opacity="0.064" stroke-width="2">
    <circle cx="240" cy="660" r="62"/><circle cx="240" cy="660" r="28"/>
    <circle cx="600" cy="660" r="96"/><circle cx="600" cy="660" r="44"/>
    <circle cx="900" cy="430" r="82"/><circle cx="900" cy="430" r="36"/>
    <circle cx="1210" cy="430" r="72"/><circle cx="1210" cy="430" r="32"/>
    <circle cx="1450" cy="250" r="54"/><circle cx="1450" cy="250" r="24"/>
    <circle cx="1450" cy="650" r="62"/><circle cx="1450" cy="650" r="28"/>
    <circle cx="900" cy="200" r="52"/><circle cx="900" cy="200" r="22"/>
  </g>
  <g stroke="#8bb8b6" stroke-opacity="0.038" stroke-width="1.2">
    <circle cx="600" cy="660" r="126"/>
    <circle cx="900" cy="430" r="108"/>
    <circle cx="1210" cy="430" r="96"/>
  </g>
  <g fill="#8bb8b6" fill-opacity="0.086">
    <circle cx="240" cy="660" r="5"/><circle cx="600" cy="660" r="5"/><circle cx="900" cy="430" r="5"/><circle cx="1210" cy="430" r="5"/><circle cx="1450" cy="250" r="5"/><circle cx="1450" cy="650" r="5"/><circle cx="900" cy="200" r="5"/>
  </g>
</svg>
